 http://img26.imageshack.us/img26/738/appfulqqq.jpg

Country.......: USA, Canada
Genre.........: Drama, Thriller
Date release..: 2011 [World]
Director......: Lux
Writers.......: Lux, Ryan M. Andrews
Duration......: 96 min.
More..........: http://www.imdb.com/title/tt1552221
Trailer.......: http://www.imdb.com/video/wab/vi1933809945
Trailer.......:

Pilot :
A single church-going mother desperately tries to save her two daughters from walking down the same dark path she was once on; and a young woman fights against addiction to a mysterious party drug.

Cats :
Charlie Bewley   	 ...  	David Lancer
Christy Andersen 	... 	Alison Meyer
Elisa King 	... 	Dianna Meyer
Ashley McCarthy 	... 	Chantel Meyer
David J. Phillips 	... 	Scott Hansen
Teagan Vincze 	... 	Faye Holly
Corbin Timbrook 	... 	Father Randall
Linda Bella 	... 	Susan
Sal Landi 	... 	Officer
Alexandra Essoe 	... 	Aggressive Patient
Erika Walter 	... 	Radio Caller
Con Schell 	... 	Cop
Shelby Janes 	... 	Nurse Claire
Nick Machado 	... 	Drug Addict
Robert Ambrose 	... 	Mental Patient 

Data Technical :
!!! SAMPLE !!!
Audio.....: English
Subtitles.: None
Format                           : AVI
Format/Info                      : Audio Video Interleave
File size                        : 1.52 GiB
Duration                         : 1h 35mn
Overall bit rate                 : 2 264 Kbps
Writing application              : Nandub v1.0rc2
Writing library                  : Nandub build 1853/release
Video
ID                               : 0
Format                           : MPEG-4 Visual
Format profile                   : Advanced Simple@L5
Format settings, BVOP            : Yes
Format settings, QPel            : Yes
Format settings, GMC             : No warppoints
Format settings, Matrix          : Default (H.263)
Muxing mode                      : Packed bitstream
Codec ID                         : XVID
Codec ID/Hint                    : XviD
Duration                         : 1h 35mn
Bit rate                         : 1 999 Kbps
Width                            : 720 pixels
Height                           : 304 pixels
Display aspect ratio             : 2.35:1
Frame rate                       : 23.976 fps
Color space                      : YUV
Chroma subsampling               : 4:2:0
Bit depth                        : 8 bits
Scan type                        : Progressive
Bits/(Pixel*Frame)               : 0.381
Stream size                      : 1.34 GiB (88%)
Writing library                  : XviD 1.2.1 (UTC 2008-12-04)
Audio
ID                               : 1
Format                           : AC-3
Format/Info                      : Audio Coding 3
Mode extension                   : CM (complete main)
Codec ID                         : 2000
Duration                         : 1h 35mn
Bit rate mode                    : Constant
Bit rate                         : 256 Kbps
Channel(s)                       : 2 channels
Channel positions                : Front: L R
Sampling rate                    : 48.0 KHz
Bit depth                        : 16 bits
Video delay                      : 22ms
Stream size                      : 176 MiB (11%)
Alignment                        : Split accross interleaves
Interleave, duration             : 42 ms (1.00 video frame)
Interleave, preload duration     : 500 ms

Screen : 
http://img821.imageshack.us/img821/236/ecstasy2011s1.jpg 
http://img825.imageshack.us/img825/9233/ecstasy2011s2.jpg 
http://img232.imageshack.us/img232/7057/ecstasy2011s3.jpg 
http://img17.imageshack.us/img17/2738/ecstasy2011s4.jpg 
http://img542.imageshack.us/img542/7326/ecstasy2011s5.jpg